<?xml version="1.0" encoding="UTF-8"?>
<!DOCTYPE svg PUBLIC "-//W3C//DTD SVG 1.1//EN" "http://www.w3.org/Graphics/SVG/1.1/DTD/svg11.dtd">
<!-- Creator: CorelDRAW 2017 -->
<svg xmlns="http://www.w3.org/2000/svg" xml:space="preserve" width="34px" height="34px" version="1.1" shape-rendering="geometricPrecision" text-rendering="geometricPrecision" image-rendering="optimizeQuality" fill-rule="evenodd" clip-rule="evenodd"
viewBox="0 0 1.11 1.11"
 xmlns:xlink="http://www.w3.org/1999/xlink">
 <g id="Слой_x0020_1">
  <metadata id="CorelCorpID_0Corel-Layer"/>
  <path fill="white" fill-rule="nonzero" d="M0.96 0.22c0,0.03 -0.03,0.06 -0.07,0.06 -0.03,0 -0.06,-0.03 -0.06,-0.06 0,-0.04 0.03,-0.07 0.06,-0.07 0.04,0 0.07,0.03 0.07,0.07zm0.15 -0.2c0,-0.01 -0.01,-0.02 -0.02,-0.02 -0.24,0 -0.37,0.05 -0.54,0.22 -0.04,0.04 -0.08,0.09 -0.12,0.14l-0.26 0.01c0,0 -0.01,0 -0.01,0.01l-0.16 0.26c0,0.01 0,0.02 0.01,0.03l0.04 0.04c0.01,0.01 0.01,0.01 0.02,0.01 0,0 0,0 0,0l0.19 -0.06 0.19 0.19 -0.06 0.19c0,0 0,0.01 0.01,0.02l0.04 0.04c0.01,0.01 0.01,0.01 0.02,0.01 0,0 0.01,0 0.01,0l0.26 -0.16c0.01,0 0.01,-0.01 0.01,-0.01l0.01 -0.26c0.05,-0.04 0.1,-0.08 0.14,-0.12 0.16,-0.16 0.22,-0.31 0.22,-0.54z"/>
 </g>
</svg>
