<?xml version="1.0" encoding="UTF-8"?>
<!DOCTYPE svg PUBLIC "-//W3C//DTD SVG 1.1//EN" "http://www.w3.org/Graphics/SVG/1.1/DTD/svg11.dtd">
<!-- Creator: CorelDRAW 2017 -->
<svg xmlns="http://www.w3.org/2000/svg" xml:space="preserve" width="35px" height="29px" version="1.1" shape-rendering="geometricPrecision" text-rendering="geometricPrecision" image-rendering="optimizeQuality" fill-rule="evenodd" clip-rule="evenodd"
viewBox="0 0 19.42 16.36"
 xmlns:xlink="http://www.w3.org/1999/xlink">
 <g id="Слой_x0020_1">
  <metadata id="CorelCorpID_0Corel-Layer"/>
  <path fill="white" fill-rule="nonzero" d="M16.36 9.32c0,-0.16 -0.09,-0.29 -0.23,-0.34 -0.05,-0.03 -0.09,-0.04 -0.14,-0.04 -0.09,0 -0.19,0.04 -0.27,0.12l-0.74 0.74c-0.07,0.07 -0.1,0.16 -0.1,0.26l0 2.96c0,1.02 -0.84,1.86 -1.86,1.86l-9.68 0c-1.02,0 -1.86,-0.84 -1.86,-1.86l0 -9.68c0,-1.02 0.84,-1.86 1.86,-1.86l9.68 0c0.18,0 0.35,0.02 0.52,0.07 0.04,0.01 0.07,0.02 0.11,0.02 0.09,0 0.2,-0.05 0.26,-0.11l0.58 -0.57c0.09,-0.09 0.12,-0.21 0.1,-0.33 -0.02,-0.12 -0.1,-0.22 -0.21,-0.27 -0.43,-0.2 -0.9,-0.29 -1.36,-0.29l-9.68 0c-1.85,0 -3.34,1.49 -3.34,3.34l0 9.68c0,1.85 1.49,3.34 3.34,3.34l9.68 0c1.85,0 3.34,-1.49 3.34,-3.34l0 -3.7zm2.68 -5.69c0.38,-0.37 0.38,-0.95 0,-1.33l-1.27 -1.27c-0.38,-0.37 -0.96,-0.37 -1.33,0l-7.52 7.52 -3.06 -3.06c-0.37,-0.37 -0.95,-0.37 -1.32,0l-1.28 1.28c-0.37,0.37 -0.37,0.95 0,1.33l5 5c0.37,0.37 0.96,0.37 1.33,0l9.45 -9.47z"/>
 </g>
</svg>
