<?xml version="1.0" encoding="UTF-8"?>
<!DOCTYPE svg PUBLIC "-//W3C//DTD SVG 1.1//EN" "http://www.w3.org/Graphics/SVG/1.1/DTD/svg11.dtd">
<!-- Creator: CorelDRAW 2017 -->
<svg xmlns="http://www.w3.org/2000/svg" xml:space="preserve" width="32px" height="32px" version="1.1" shape-rendering="geometricPrecision" text-rendering="geometricPrecision" image-rendering="optimizeQuality" fill-rule="evenodd" clip-rule="evenodd"
viewBox="0 0 2.08 2.08"
 xmlns:xlink="http://www.w3.org/1999/xlink">
 <g id="Слой_x0020_1">
  <metadata id="CorelCorpID_0Corel-Layer"/>
  <path fill="white" fill-rule="nonzero" d="M2.05 1.26c0,-0.03 -0.02,-0.05 -0.05,-0.05l-0.26 0c-0.02,0 -0.03,0.02 -0.04,0.03 -0.02,0.06 -0.04,0.11 -0.07,0.16 -0.13,0.21 -0.35,0.33 -0.59,0.33 -0.18,0 -0.34,-0.07 -0.47,-0.18l0.18 -0.19c0.02,-0.02 0.03,-0.04 0.03,-0.06 0,-0.05 -0.04,-0.09 -0.09,-0.09l-0.6 0c-0.05,0 -0.09,0.04 -0.09,0.09l0 0.61c0,0.04 0.04,0.08 0.09,0.08 0.02,0 0.04,-0.01 0.06,-0.02l0.17 -0.18c0.19,0.18 0.45,0.29 0.71,0.29 0.5,0 0.9,-0.34 1.01,-0.81 0.01,-0.01 0.01,-0.01 0.01,-0.01l0 0zm0.03 -1.09c0,-0.04 -0.04,-0.08 -0.09,-0.08 -0.02,0 -0.04,0.01 -0.06,0.02l-0.17 0.18c-0.2,-0.18 -0.46,-0.29 -0.72,-0.29 -0.5,0 -0.9,0.33 -1.02,0.81 0,0.01 0,0.01 0,0.01 0,0.03 0.02,0.05 0.05,0.05l0.27 0c0.02,0 0.03,-0.02 0.04,-0.03 0.02,-0.06 0.04,-0.11 0.07,-0.16 0.13,-0.21 0.35,-0.33 0.59,-0.33 0.17,0 0.34,0.06 0.47,0.18l-0.19 0.19c-0.01,0.01 -0.02,0.04 -0.02,0.06 0,0.05 0.04,0.09 0.09,0.09l0.6 0c0.05,0 0.09,-0.04 0.09,-0.09l0 -0.61z"/>
 </g>
</svg>
