<?xml version="1.0" encoding="UTF-8"?>
<!DOCTYPE svg PUBLIC "-//W3C//DTD SVG 1.1//EN" "http://www.w3.org/Graphics/SVG/1.1/DTD/svg11.dtd">
<!-- Creator: CorelDRAW 2017 -->
<svg xmlns="http://www.w3.org/2000/svg" xml:space="preserve" width="27px" height="29px" version="1.1" shape-rendering="geometricPrecision" text-rendering="geometricPrecision" image-rendering="optimizeQuality" fill-rule="evenodd" clip-rule="evenodd"
viewBox="0 0 1.22 1.35"
 xmlns:xlink="http://www.w3.org/1999/xlink">
 <g id="Слой_x0020_1">
  <metadata id="CorelCorpID_0Corel-Layer"/>
  <path fill="white" fill-rule="nonzero" d="M1 0.42c0,0.13 -0.09,0.21 -0.23,0.21l-0.3 0 0 -0.43 0 0 0.3 0c0.14,0 0.23,0.09 0.23,0.22zm0.22 0c0,-0.25 -0.18,-0.42 -0.43,-0.42l0 0 -0.52 0c-0.01,0 -0.03,0.01 -0.03,0.03l0 0.6 -0.21 0c-0.02,0 -0.03,0.01 -0.03,0.03l0 0.14c0,0.02 0.01,0.04 0.03,0.04l0.21 0 0 0.11 -0.21 0c-0.02,0 -0.03,0.01 -0.03,0.03l0 0.12c0,0.02 0.01,0.03 0.03,0.03l0.21 0 0 0.18c0,0.02 0.02,0.04 0.03,0.04l0.16 0c0.02,0 0.04,-0.02 0.04,-0.04l0 -0.18 0.48 0c0.01,0 0.03,-0.01 0.03,-0.03l0 -0.12c0,-0.02 -0.02,-0.03 -0.03,-0.03l-0.48 0 0 -0.11 0.32 0c0.25,0 0.43,-0.18 0.43,-0.42z"/>
 </g>
</svg>
