<?xml version="1.0" encoding="UTF-8"?>
<!DOCTYPE svg PUBLIC "-//W3C//DTD SVG 1.1//EN" "http://www.w3.org/Graphics/SVG/1.1/DTD/svg11.dtd">
<!-- Creator: CorelDRAW 2017 -->
<svg xmlns="http://www.w3.org/2000/svg" xml:space="preserve" width="28px" height="23px" version="1.1" shape-rendering="geometricPrecision" text-rendering="geometricPrecision" image-rendering="optimizeQuality" fill-rule="evenodd" clip-rule="evenodd"
viewBox="0 0 1.01 0.86"
 xmlns:xlink="http://www.w3.org/1999/xlink">
 <g id="Слой_x0020_1">
  <metadata id="CorelCorpID_0Corel-Layer"/>
  <path fill="white" fill-rule="nonzero" d="M0.39 0.78c0,-0.05 -0.04,-0.08 -0.08,-0.08 -0.04,0 -0.08,0.03 -0.08,0.08 0,0.04 0.04,0.08 0.08,0.08 0.04,0 0.08,-0.04 0.08,-0.08zm0.54 0c0,-0.05 -0.03,-0.08 -0.07,-0.08 -0.05,0 -0.08,0.03 -0.08,0.08 0,0.04 0.03,0.08 0.08,0.08 0.04,0 0.07,-0.04 0.07,-0.08l0 0zm0.08 -0.66c0,-0.03 -0.02,-0.04 -0.04,-0.04l-0.73 0c0,-0.03 0,-0.08 -0.05,-0.08l-0.15 0c-0.02,0 -0.04,0.02 -0.04,0.04 0,0.02 0.02,0.04 0.04,0.04l0.12 0 0.11 0.5c-0.01,0.02 -0.04,0.06 -0.04,0.08 0,0.02 0.02,0.04 0.04,0.04l0.62 0c0.03,0 0.04,-0.02 0.04,-0.04 0,-0.02 -0.01,-0.04 -0.04,-0.04l-0.55 0c0,-0.01 0.01,-0.02 0.01,-0.04 0,-0.01 0,-0.03 -0.01,-0.04l0.64 -0.07c0.02,-0.01 0.03,-0.02 0.03,-0.04l0 -0.31z"/>
 </g>
</svg>
