<?xml version="1.0" encoding="UTF-8"?>
<!DOCTYPE svg PUBLIC "-//W3C//DTD SVG 1.1//EN" "http://www.w3.org/Graphics/SVG/1.1/DTD/svg11.dtd">
<!-- Creator: CorelDRAW 2017 -->
<svg xmlns="http://www.w3.org/2000/svg" xml:space="preserve" width="15px" height="11px" version="1.1" shape-rendering="geometricPrecision" text-rendering="geometricPrecision" image-rendering="optimizeQuality" fill-rule="evenodd" clip-rule="evenodd"
viewBox="0 0 1.34 1.05"
 xmlns:xlink="http://www.w3.org/1999/xlink">
 <g id="Слой_x0020_1">
  <metadata id="CorelCorpID_0Corel-Layer"/>
  <path fill="#FF6600" fill-rule="nonzero" d="M1.34 0.34c-0.02,0.02 -0.05,0.05 -0.07,0.07 -0.13,0.08 -0.25,0.17 -0.38,0.25 -0.06,0.05 -0.14,0.11 -0.22,0.11l0 0 0 0c-0.08,0 -0.16,-0.06 -0.22,-0.11 -0.12,-0.09 -0.25,-0.17 -0.37,-0.25 -0.03,-0.02 -0.06,-0.05 -0.08,-0.07l0 0.59c0,0.07 0.05,0.12 0.12,0.12l1.1 0c0.07,0 0.12,-0.05 0.12,-0.12l0 -0.59zm0 -0.22c0,-0.07 -0.05,-0.12 -0.12,-0.12l-1.1 0c-0.08,0 -0.12,0.06 -0.12,0.14 0,0.06 0.08,0.15 0.13,0.18 0.11,0.09 0.23,0.17 0.35,0.25 0.05,0.03 0.13,0.1 0.19,0.1l0 0 0 0c0.06,0 0.14,-0.07 0.19,-0.1 0.12,-0.08 0.24,-0.16 0.35,-0.25 0.07,-0.04 0.13,-0.12 0.13,-0.2z"/>
 </g>
</svg>
