<?xml version="1.0" encoding="UTF-8"?>
<!DOCTYPE svg PUBLIC "-//W3C//DTD SVG 1.1//EN" "http://www.w3.org/Graphics/SVG/1.1/DTD/svg11.dtd">
<!-- Creator: CorelDRAW 2017 -->
<svg xmlns="http://www.w3.org/2000/svg" xml:space="preserve" width="11px" height="11px" version="1.1" shape-rendering="geometricPrecision" text-rendering="geometricPrecision" image-rendering="optimizeQuality" fill-rule="evenodd" clip-rule="evenodd"
viewBox="0 0 0.11 0.11"
 xmlns:xlink="http://www.w3.org/1999/xlink">
 <g id="Слой_x0020_1">
  <metadata id="CorelCorpID_0Corel-Layer"/>
  <path fill="#003333" fill-rule="nonzero" d="M0.11 0.09c0,0 0,0 0,0 0,0 0,-0.01 0,-0.01 -0.01,0 -0.01,0 -0.02,0 0,0 0,-0.01 0,-0.01 -0.01,0 -0.02,0.02 -0.02,0.02 0,0 0,0 -0.01,-0.01 -0.01,0 -0.02,-0.01 -0.03,-0.03 0,0 0,0 0,-0.01 0,0 0.01,-0.01 0.01,-0.01 0,-0.01 0,-0.01 0,-0.01 0,0 -0.01,-0.01 -0.01,-0.01 0,-0.01 0,-0.01 0,-0.01 0,0 -0.01,0 -0.01,0 0,0 0,0 -0.01,0 0,0 0,0.01 -0.01,0.01 0,0.01 0,0.01 0,0.02 0,0.01 0,0.01 0.01,0.02 0,0 0,0.01 0,0.01 0.01,0.02 0.03,0.03 0.04,0.04 0.01,0 0.01,0.01 0.02,0.01 0,0 0.01,0 0.02,0 0,0 0.01,0 0.01,0 0.01,0 0.01,0 0.01,-0.01 0,0 0,-0.01 0,-0.01z"/>
 </g>
</svg>
