<?xml version="1.0" encoding="UTF-8"?>
<!DOCTYPE svg PUBLIC "-//W3C//DTD SVG 1.1//EN" "http://www.w3.org/Graphics/SVG/1.1/DTD/svg11.dtd">
<!-- Creator: CorelDRAW 2017 -->
<svg xmlns="http://www.w3.org/2000/svg" xml:space="preserve" width="8px" height="13px" version="1.1" shape-rendering="geometricPrecision" text-rendering="geometricPrecision" image-rendering="optimizeQuality" fill-rule="evenodd" clip-rule="evenodd"
viewBox="0 0 0.06 0.09"
 xmlns:xlink="http://www.w3.org/1999/xlink">
 <g id="Слой_x0020_1">
  <metadata id="CorelCorpID_0Corel-Layer"/>
  <path fill="#003333" fill-rule="nonzero" d="M0.05 0.03c0,0.01 -0.01,0.02 -0.02,0.02 -0.01,0 -0.01,-0.01 -0.01,-0.02 0,-0.01 0,-0.01 0.01,-0.01 0.01,0 0.02,0 0.02,0.01zm0.01 0c0,-0.02 -0.01,-0.03 -0.03,-0.03 -0.02,0 -0.03,0.01 -0.03,0.03 0,0 0,0.01 0,0.01l0.02 0.05c0,0 0.01,0 0.01,0 0,0 0.01,0 0.01,0l0.02 -0.05c0,0 0,-0.01 0,-0.01z"/>
 </g>
</svg>
