<?xml version="1.0" encoding="UTF-8"?>
<!DOCTYPE svg PUBLIC "-//W3C//DTD SVG 1.1//EN" "http://www.w3.org/Graphics/SVG/1.1/DTD/svg11.dtd">
<!-- Creator: CorelDRAW 2017 -->
<svg xmlns="http://www.w3.org/2000/svg" xml:space="preserve" width="8px" height="13px" version="1.1" shape-rendering="geometricPrecision" text-rendering="geometricPrecision" image-rendering="optimizeQuality" fill-rule="evenodd" clip-rule="evenodd"
viewBox="0 0 0.39 0.59"
 xmlns:xlink="http://www.w3.org/1999/xlink">
 <g id="Слой_x0020_1">
  <metadata id="CorelCorpID_0Corel-Layer"/>
  <path fill="#FF6600" fill-rule="nonzero" d="M0.29 0.2c0,0.05 -0.04,0.09 -0.09,0.09 -0.06,0 -0.1,-0.04 -0.1,-0.09 0,-0.06 0.04,-0.1 0.1,-0.1 0.05,0 0.09,0.04 0.09,0.1zm0.1 0c0,-0.11 -0.09,-0.2 -0.19,-0.2 -0.11,0 -0.2,0.09 -0.2,0.2 0,0.02 0,0.04 0.01,0.06l0.14 0.3c0.01,0.02 0.03,0.03 0.05,0.03 0.01,0 0.03,-0.01 0.04,-0.03l0.14 -0.3c0.01,-0.02 0.01,-0.04 0.01,-0.06z"/>
 </g>
</svg>
