<?xml version="1.0" encoding="UTF-8"?>
<!DOCTYPE svg PUBLIC "-//W3C//DTD SVG 1.1//EN" "http://www.w3.org/Graphics/SVG/1.1/DTD/svg11.dtd">
<!-- Creator: CorelDRAW 2017 -->
<svg xmlns="http://www.w3.org/2000/svg" xml:space="preserve" width="16px" height="16px" version="1.1" shape-rendering="geometricPrecision" text-rendering="geometricPrecision" image-rendering="optimizeQuality" fill-rule="evenodd" clip-rule="evenodd"
viewBox="0 0 0.46 0.46"
 xmlns:xlink="http://www.w3.org/1999/xlink">
 <g id="Слой_x0020_1">
  <metadata id="CorelCorpID_0Corel-Layer"/>
  <path fill="white" fill-rule="nonzero" d="M0.23 0c-0.13,0 -0.23,0.1 -0.23,0.23 0,0.12 0.1,0.23 0.23,0.23 0.13,0 0.23,-0.11 0.23,-0.23 0,-0.13 -0.11,-0.23 -0.23,-0.23zm0.16 0.34c-0.01,-0.04 -0.03,-0.08 -0.08,-0.08 -0.02,0.02 -0.05,0.03 -0.08,0.03 -0.03,0 -0.06,-0.01 -0.08,-0.03 -0.05,0 -0.07,0.04 -0.08,0.08 -0.02,-0.03 -0.04,-0.07 -0.04,-0.11 0,-0.11 0.09,-0.2 0.2,-0.2 0.11,0 0.19,0.09 0.19,0.2 0,0.04 -0.01,0.08 -0.03,0.11zm-0.06 -0.16c0,0.05 -0.05,0.1 -0.1,0.1 -0.06,0 -0.1,-0.05 -0.1,-0.1 0,-0.05 0.04,-0.1 0.1,-0.1 0.05,0 0.1,0.05 0.1,0.1z"/>
 </g>
</svg>
