<?xml version="1.0" encoding="UTF-8"?>
<!DOCTYPE svg PUBLIC "-//W3C//DTD SVG 1.1//EN" "http://www.w3.org/Graphics/SVG/1.1/DTD/svg11.dtd">
<!-- Creator: CorelDRAW 2017 -->
<svg xmlns="http://www.w3.org/2000/svg" xml:space="preserve" width="14px" height="14px" version="1.1" shape-rendering="geometricPrecision" text-rendering="geometricPrecision" image-rendering="optimizeQuality" fill-rule="evenodd" clip-rule="evenodd"
viewBox="0 0 0.25 0.25"
 xmlns:xlink="http://www.w3.org/1999/xlink">
 <g id="Слой_x0020_1">
  <metadata id="CorelCorpID_0Corel-Layer"/>
  <path fill="white" fill-rule="nonzero" d="M0.21 0.1c0,0 0,0.01 0,0.01l-0.09 0.09c0,0 -0.01,0 -0.01,0 0,0 0,0 -0.01,0l-0.06 -0.06c0,0 0,-0.01 0,-0.01 0,0 0,-0.01 0,-0.01l0.02 -0.01c0,0 0,-0.01 0.01,-0.01 0,0 0,0.01 0,0.01l0.04 0.03 0.07 -0.06c0,0 0,-0.01 0.01,-0.01 0,0 0,0.01 0,0.01l0.02 0.01c0,0 0,0.01 0,0.01zm0.04 0.03c0,-0.07 -0.05,-0.13 -0.12,-0.13 -0.07,0 -0.13,0.06 -0.13,0.13 0,0.07 0.06,0.12 0.13,0.12 0.07,0 0.12,-0.05 0.12,-0.12l0 0z"/>
 </g>
</svg>
